<?xml version="1.0" encoding="UTF-8"?>
<!--Generator: Apple Native CoreSVG 123-->
<!DOCTYPE svg
PUBLIC "-//W3C//DTD SVG 1.1//EN"
       "http://www.w3.org/Graphics/SVG/1.1/DTD/svg11.dtd">
<svg version="1.1" xmlns="http://www.w3.org/2000/svg" xmlns:xlink="http://www.w3.org/1999/xlink" width="3300" height="2200">
 <!--glyph: "uni1001E3.medium", point size: 100.000000, font version: "Version 15.0d7e11", template writer version: "5"-->
 <g id="Notes">
  <rect height="2200" id="artboard" style="fill:white;opacity:1" width="3300" x="0" y="0"/>
  <line id="" style="fill:none;stroke:black;opacity:1;stroke-width:0.5;" x1="263" x2="3036" y1="292" y2="292"/>
  <text style="stroke:none;fill:black;font-family:-apple-system,&quot;SF Pro Display&quot;,&quot;SF Pro Text&quot;,Helvetica,sans-serif;font-weight:bold;" transform="matrix(1 0 0 1 263 322)">Weight/Scale Variations</text>
  <text style="stroke:none;fill:black;font-family:-apple-system,&quot;SF Pro Display&quot;,&quot;SF Pro Text&quot;,Helvetica,sans-serif;text-anchor:middle;" transform="matrix(1 0 0 1 559.711 322)">Ultralight</text>
  <text style="stroke:none;fill:black;font-family:-apple-system,&quot;SF Pro Display&quot;,&quot;SF Pro Text&quot;,Helvetica,sans-serif;text-anchor:middle;" transform="matrix(1 0 0 1 856.422 322)">Thin</text>
  <text style="stroke:none;fill:black;font-family:-apple-system,&quot;SF Pro Display&quot;,&quot;SF Pro Text&quot;,Helvetica,sans-serif;text-anchor:middle;" transform="matrix(1 0 0 1 1153.13 322)">Light</text>
  <text style="stroke:none;fill:black;font-family:-apple-system,&quot;SF Pro Display&quot;,&quot;SF Pro Text&quot;,Helvetica,sans-serif;text-anchor:middle;" transform="matrix(1 0 0 1 1449.84 322)">Regular</text>
  <text style="stroke:none;fill:black;font-family:-apple-system,&quot;SF Pro Display&quot;,&quot;SF Pro Text&quot;,Helvetica,sans-serif;text-anchor:middle;" transform="matrix(1 0 0 1 1746.56 322)">Medium</text>
  <text style="stroke:none;fill:black;font-family:-apple-system,&quot;SF Pro Display&quot;,&quot;SF Pro Text&quot;,Helvetica,sans-serif;text-anchor:middle;" transform="matrix(1 0 0 1 2043.27 322)">Semibold</text>
  <text style="stroke:none;fill:black;font-family:-apple-system,&quot;SF Pro Display&quot;,&quot;SF Pro Text&quot;,Helvetica,sans-serif;text-anchor:middle;" transform="matrix(1 0 0 1 2339.98 322)">Bold</text>
  <text style="stroke:none;fill:black;font-family:-apple-system,&quot;SF Pro Display&quot;,&quot;SF Pro Text&quot;,Helvetica,sans-serif;text-anchor:middle;" transform="matrix(1 0 0 1 2636.69 322)">Heavy</text>
  <text style="stroke:none;fill:black;font-family:-apple-system,&quot;SF Pro Display&quot;,&quot;SF Pro Text&quot;,Helvetica,sans-serif;text-anchor:middle;" transform="matrix(1 0 0 1 2933.4 322)">Black</text>
  <line id="" style="fill:none;stroke:black;opacity:1;stroke-width:0.5;" x1="263" x2="3036" y1="1903" y2="1903"/>
  <g id="" transform="matrix(1 0 0 1 263 1933)">
   <path d="M 9.24805 0.830078 C 13.5547 0.830078 17.1387 -2.74414 17.1387 -7.05078 C 17.1387 -11.3574 13.5449 -14.9316 9.23828 -14.9316 C 4.94141 -14.9316 1.36719 -11.3574 1.36719 -7.05078 C 1.36719 -2.74414 4.95117 0.830078 9.24805 0.830078 Z M 9.24805 -0.654297 C 5.70312 -0.654297 2.87109 -3.49609 2.87109 -7.05078 C 2.87109 -10.6055 5.69336 -13.4473 9.23828 -13.4473 C 12.793 -13.4473 15.6348 -10.6055 15.6445 -7.05078 C 15.6543 -3.49609 12.8027 -0.654297 9.24805 -0.654297 Z M 9.22852 -3.42773 C 9.69727 -3.42773 9.9707 -3.74023 9.9707 -4.25781 L 9.9707 -6.31836 L 12.1973 -6.31836 C 12.6953 -6.31836 13.0371 -6.57227 13.0371 -7.04102 C 13.0371 -7.51953 12.7148 -7.7832 12.1973 -7.7832 L 9.9707 -7.7832 L 9.9707 -10.0098 C 9.9707 -10.5273 9.69727 -10.8496 9.22852 -10.8496 C 8.75977 -10.8496 8.50586 -10.5078 8.50586 -10.0098 L 8.50586 -7.7832 L 6.29883 -7.7832 C 5.78125 -7.7832 5.44922 -7.51953 5.44922 -7.04102 C 5.44922 -6.57227 5.80078 -6.31836 6.29883 -6.31836 L 8.50586 -6.31836 L 8.50586 -4.25781 C 8.50586 -3.75977 8.75977 -3.42773 9.22852 -3.42773 Z"/>
  </g>
  <g id="" transform="matrix(1 0 0 1 281.506 1933)">
   <path d="M 11.709 2.91016 C 17.1582 2.91016 21.6699 -1.60156 21.6699 -7.05078 C 21.6699 -12.4902 17.1484 -17.0117 11.6992 -17.0117 C 6.25977 -17.0117 1.74805 -12.4902 1.74805 -7.05078 C 1.74805 -1.60156 6.26953 2.91016 11.709 2.91016 Z M 11.709 1.25 C 7.09961 1.25 3.41797 -2.44141 3.41797 -7.05078 C 3.41797 -11.6504 7.08984 -15.3516 11.6992 -15.3516 C 16.3086 -15.3516 20 -11.6504 20.0098 -7.05078 C 20.0195 -2.44141 16.3184 1.25 11.709 1.25 Z M 11.6895 -2.41211 C 12.207 -2.41211 12.5195 -2.77344 12.5195 -3.33984 L 12.5195 -6.23047 L 15.5762 -6.23047 C 16.123 -6.23047 16.5039 -6.51367 16.5039 -7.03125 C 16.5039 -7.55859 16.1426 -7.86133 15.5762 -7.86133 L 12.5195 -7.86133 L 12.5195 -10.9277 C 12.5195 -11.5039 12.207 -11.8555 11.6895 -11.8555 C 11.1719 -11.8555 10.8789 -11.4844 10.8789 -10.9277 L 10.8789 -7.86133 L 7.83203 -7.86133 C 7.26562 -7.86133 6.89453 -7.55859 6.89453 -7.03125 C 6.89453 -6.51367 7.28516 -6.23047 7.83203 -6.23047 L 10.8789 -6.23047 L 10.8789 -3.33984 C 10.8789 -2.79297 11.1719 -2.41211 11.6895 -2.41211 Z"/>
  </g>
  <g id="" transform="matrix(1 0 0 1 304.924 1933)">
   <path d="M 14.9707 5.67383 C 21.9336 5.67383 27.6953 -0.078125 27.6953 -7.04102 C 27.6953 -14.0039 21.9238 -19.7559 14.9609 -19.7559 C 8.00781 -19.7559 2.25586 -14.0039 2.25586 -7.04102 C 2.25586 -0.078125 8.01758 5.67383 14.9707 5.67383 Z M 14.9707 3.85742 C 8.93555 3.85742 4.08203 -1.00586 4.08203 -7.04102 C 4.08203 -13.0762 8.92578 -17.9395 14.9609 -17.9395 C 21.0059 -17.9395 25.8594 -13.0762 25.8691 -7.04102 C 25.8789 -1.00586 21.0156 3.85742 14.9707 3.85742 Z M 14.9512 -1.06445 C 15.5176 -1.06445 15.8691 -1.45508 15.8691 -2.06055 L 15.8691 -6.13281 L 20.1074 -6.13281 C 20.6934 -6.13281 21.1133 -6.46484 21.1133 -7.02148 C 21.1133 -7.59766 20.7227 -7.93945 20.1074 -7.93945 L 15.8691 -7.93945 L 15.8691 -12.1875 C 15.8691 -12.8027 15.5176 -13.1934 14.9512 -13.1934 C 14.3848 -13.1934 14.0625 -12.7832 14.0625 -12.1875 L 14.0625 -7.93945 L 9.83398 -7.93945 C 9.21875 -7.93945 8.80859 -7.59766 8.80859 -7.02148 C 8.80859 -6.46484 9.23828 -6.13281 9.83398 -6.13281 L 14.0625 -6.13281 L 14.0625 -2.06055 C 14.0625 -1.47461 14.3848 -1.06445 14.9512 -1.06445 Z"/>
  </g>
  <text style="stroke:none;fill:black;font-family:-apple-system,&quot;SF Pro Display&quot;,&quot;SF Pro Text&quot;,Helvetica,sans-serif;font-weight:bold;" transform="matrix(1 0 0 1 263 1953)">Design Variations</text>
  <text style="stroke:none;fill:black;font-family:-apple-system,&quot;SF Pro Display&quot;,&quot;SF Pro Text&quot;,Helvetica,sans-serif;" transform="matrix(1 0 0 1 263 1971)">Symbols are supported in up to nine weights and three scales.</text>
  <text style="stroke:none;fill:black;font-family:-apple-system,&quot;SF Pro Display&quot;,&quot;SF Pro Text&quot;,Helvetica,sans-serif;" transform="matrix(1 0 0 1 263 1989)">For optimal layout with text and other symbols, vertically align</text>
  <text style="stroke:none;fill:black;font-family:-apple-system,&quot;SF Pro Display&quot;,&quot;SF Pro Text&quot;,Helvetica,sans-serif;" transform="matrix(1 0 0 1 263 2007)">symbols with the adjacent text.</text>
  <rect height="14" id="" style="fill:#00AEEF;stroke:none;opacity:0.4;" width="3" x="776" y="1919"/>
  <g id="" transform="matrix(1 0 0 1 779 1933)">
   <path d="M 10.5273 0 L 12.373 0 L 7.17773 -14.0918 L 5.43945 -14.0918 L 0.244141 0 L 2.08984 0 L 3.50586 -4.0332 L 9.11133 -4.0332 Z M 6.2793 -11.9531 L 6.33789 -11.9531 L 8.59375 -5.52734 L 4.02344 -5.52734 Z"/>
  </g>
  <rect height="14" id="" style="fill:#00AEEF;stroke:none;opacity:0.4;" width="3" x="791.617" y="1919"/>
  <text style="stroke:none;fill:black;font-family:-apple-system,&quot;SF Pro Display&quot;,&quot;SF Pro Text&quot;,Helvetica,sans-serif;font-weight:bold;" transform="matrix(1 0 0 1 776 1953)">Margins</text>
  <text style="stroke:none;fill:black;font-family:-apple-system,&quot;SF Pro Display&quot;,&quot;SF Pro Text&quot;,Helvetica,sans-serif;" transform="matrix(1 0 0 1 776 1971)">Leading and trailing margins on the left and right side of each symbol</text>
  <text style="stroke:none;fill:black;font-family:-apple-system,&quot;SF Pro Display&quot;,&quot;SF Pro Text&quot;,Helvetica,sans-serif;" transform="matrix(1 0 0 1 776 1989)">can be adjusted by modifying the width of the blue rectangles.</text>
  <text style="stroke:none;fill:black;font-family:-apple-system,&quot;SF Pro Display&quot;,&quot;SF Pro Text&quot;,Helvetica,sans-serif;" transform="matrix(1 0 0 1 776 2007)">Modifications are automatically applied proportionally to all</text>
  <text style="stroke:none;fill:black;font-family:-apple-system,&quot;SF Pro Display&quot;,&quot;SF Pro Text&quot;,Helvetica,sans-serif;" transform="matrix(1 0 0 1 776 2025)">scales and weights.</text>
  <g id="" transform="matrix(1 0 0 1 1289 1933)">
   <path d="M 2.83203 3.11523 L 4.375 4.6582 C 5.22461 5.48828 6.19141 5.41992 7.06055 4.46289 L 17.2754 -6.66016 C 17.7051 -6.36719 18.0957 -6.37695 18.5645 -6.47461 L 19.6094 -6.68945 L 20.3027 -5.99609 L 20.2539 -5.47852 C 20.1855 -4.95117 20.3516 -4.53125 20.8496 -4.0332 L 21.6602 -3.22266 C 22.168 -2.71484 22.8223 -2.68555 23.3008 -3.16406 L 26.5527 -6.41602 C 27.0312 -6.89453 27.0117 -7.54883 26.5039 -8.05664 L 25.6836 -8.87695 C 25.1855 -9.375 24.7754 -9.55078 24.2383 -9.47266 L 23.7109 -9.41406 L 23.0566 -10.0781 L 23.3398 -11.2207 C 23.4863 -11.7871 23.3398 -12.2559 22.7148 -12.8613 L 20.3027 -15.2539 C 16.7578 -18.7793 12.2266 -18.6719 9.11133 -15.5371 C 8.69141 -15.1074 8.64258 -14.5215 8.91602 -14.0918 C 9.15039 -13.7207 9.62891 -13.4961 10.2734 -13.6621 C 11.7871 -14.043 13.3008 -13.9258 14.7852 -12.9199 L 14.1602 -11.3379 C 13.9258 -10.752 13.9453 -10.2734 14.1797 -9.83398 L 3.01758 0.439453 C 2.08008 1.30859 1.97266 2.25586 2.83203 3.11523 Z M 10.6738 -15.1465 C 13.3398 -17.1387 16.6504 -16.8262 19.0527 -14.4141 L 21.6797 -11.8066 C 21.9141 -11.5723 21.9434 -11.3867 21.8848 -11.0938 L 21.5039 -9.53125 L 23.0762 -7.95898 L 24.043 -8.04688 C 24.3262 -8.07617 24.4141 -8.05664 24.6387 -7.83203 L 25.2637 -7.20703 L 22.5098 -4.46289 L 21.8848 -5.07812 C 21.6602 -5.30273 21.6406 -5.40039 21.6699 -5.68359 L 21.7578 -6.64062 L 20.1953 -8.20312 L 18.5742 -7.89062 C 18.291 -7.83203 18.1445 -7.83203 17.9102 -8.07617 L 15.7324 -10.2539 C 15.5078 -10.4883 15.4785 -10.625 15.6055 -10.9473 L 16.5527 -13.2227 C 14.9512 -14.7559 12.8418 -15.6055 10.8008 -14.9512 C 10.7129 -14.9219 10.6445 -14.9414 10.6152 -14.9805 C 10.5859 -15.0293 10.5859 -15.0781 10.6738 -15.1465 Z M 4.10156 2.41211 C 3.61328 1.91406 3.78906 1.61133 4.12109 1.30859 L 15.0781 -8.80859 L 16.3086 -7.57812 L 6.15234 3.34961 C 5.84961 3.68164 5.46875 3.7793 5.06836 3.37891 Z"/>
  </g>
  <text style="stroke:none;fill:black;font-family:-apple-system,&quot;SF Pro Display&quot;,&quot;SF Pro Text&quot;,Helvetica,sans-serif;font-weight:bold;" transform="matrix(1 0 0 1 1289 1953)">Exporting</text>
  <text style="stroke:none;fill:black;font-family:-apple-system,&quot;SF Pro Display&quot;,&quot;SF Pro Text&quot;,Helvetica,sans-serif;" transform="matrix(1 0 0 1 1289 1971)">Symbols should be outlined when exporting to ensure the</text>
  <text style="stroke:none;fill:black;font-family:-apple-system,&quot;SF Pro Display&quot;,&quot;SF Pro Text&quot;,Helvetica,sans-serif;" transform="matrix(1 0 0 1 1289 1989)">design is preserved when submitting to Xcode.</text>
  <text id="template-version" style="stroke:none;fill:black;font-family:-apple-system,&quot;SF Pro Display&quot;,&quot;SF Pro Text&quot;,Helvetica,sans-serif;text-anchor:end;" transform="matrix(1 0 0 1 3036 1933)">Template v.1.0</text>
  <text style="stroke:none;fill:black;font-family:-apple-system,&quot;SF Pro Display&quot;,&quot;SF Pro Text&quot;,Helvetica,sans-serif;text-anchor:end;" transform="matrix(1 0 0 1 3036 1951)">Generated from smoke.fill</text>
  <text style="stroke:none;fill:black;font-family:-apple-system,&quot;SF Pro Display&quot;,&quot;SF Pro Text&quot;,Helvetica,sans-serif;text-anchor:end;" transform="matrix(1 0 0 1 3036 1969)">Typeset at 100 points</text>
  <text style="stroke:none;fill:black;font-family:-apple-system,&quot;SF Pro Display&quot;,&quot;SF Pro Text&quot;,Helvetica,sans-serif;" transform="matrix(1 0 0 1 263 726)">Small</text>
  <text style="stroke:none;fill:black;font-family:-apple-system,&quot;SF Pro Display&quot;,&quot;SF Pro Text&quot;,Helvetica,sans-serif;" transform="matrix(1 0 0 1 263 1156)">Medium</text>
  <text style="stroke:none;fill:black;font-family:-apple-system,&quot;SF Pro Display&quot;,&quot;SF Pro Text&quot;,Helvetica,sans-serif;" transform="matrix(1 0 0 1 263 1586)">Large</text>
 </g>
 <g id="Guides">
  <g id="H-reference" style="fill:#27AAE1;stroke:none;" transform="matrix(1 0 0 1 339 696)">
   <path d="M 54.9316 0 L 57.666 0 L 30.5664 -70.459 L 28.0762 -70.459 L 0.976562 0 L 3.66211 0 L 12.9395 -24.4629 L 45.7031 -24.4629 Z M 29.1992 -67.0898 L 29.4434 -67.0898 L 44.8242 -26.709 L 13.8184 -26.709 Z"/>
  </g>
  <line id="Baseline-S" style="fill:none;stroke:#27AAE1;opacity:1;stroke-width:0.577;" x1="263" x2="3036" y1="696" y2="696"/>
  <line id="Capline-S" style="fill:none;stroke:#27AAE1;opacity:1;stroke-width:0.577;" x1="263" x2="3036" y1="625.541" y2="625.541"/>
  <g id="H-reference" style="fill:#27AAE1;stroke:none;" transform="matrix(1 0 0 1 339 1126)">
   <path d="M 54.9316 0 L 57.666 0 L 30.5664 -70.459 L 28.0762 -70.459 L 0.976562 0 L 3.66211 0 L 12.9395 -24.4629 L 45.7031 -24.4629 Z M 29.1992 -67.0898 L 29.4434 -67.0898 L 44.8242 -26.709 L 13.8184 -26.709 Z"/>
  </g>
  <line id="Baseline-M" style="fill:none;stroke:#27AAE1;opacity:1;stroke-width:0.577;" x1="263" x2="3036" y1="1126" y2="1126"/>
  <line id="Capline-M" style="fill:none;stroke:#27AAE1;opacity:1;stroke-width:0.577;" x1="263" x2="3036" y1="1055.54" y2="1055.54"/>
  <g id="H-reference" style="fill:#27AAE1;stroke:none;" transform="matrix(1 0 0 1 339 1556)">
   <path d="M 54.9316 0 L 57.666 0 L 30.5664 -70.459 L 28.0762 -70.459 L 0.976562 0 L 3.66211 0 L 12.9395 -24.4629 L 45.7031 -24.4629 Z M 29.1992 -67.0898 L 29.4434 -67.0898 L 44.8242 -26.709 L 13.8184 -26.709 Z"/>
  </g>
  <line id="Baseline-L" style="fill:none;stroke:#27AAE1;opacity:1;stroke-width:0.577;" x1="263" x2="3036" y1="1556" y2="1556"/>
  <line id="Capline-L" style="fill:none;stroke:#27AAE1;opacity:1;stroke-width:0.577;" x1="263" x2="3036" y1="1485.54" y2="1485.54"/>
  <rect height="119.336" id="left-margin" style="fill:#00AEEF;stroke:none;opacity:0.4;" width="8.74023" x="1385.37" y="1030.79"/>
  <rect height="119.336" id="right-margin" style="fill:#00AEEF;stroke:none;opacity:0.4;" width="8.74023" x="1505.58" y="1030.79"/>
 </g>
 <g id="Symbols">
  <g id="Black-L" transform="matrix(1 0 0 1 2845.31 1556)">
   <path d="M 24.3652 -12.9395 C 26.0742 -26.5625 35.791 -35.6934 46.7285 -37.5 C 51.3184 -51.6602 64.3555 -60.1074 78.6133 -60.1074 C 80.5664 -60.1074 82.5195 -59.9121 84.375 -59.7168 C 90.6738 -69.8242 101.904 -73.9258 114.746 -72.5586 C 111.328 -78.3691 103.809 -82.0312 95.459 -82.0312 C 92.9199 -82.0312 90.4297 -81.5918 88.0371 -80.8594 C 81.543 -89.1602 73.0469 -92.8711 63.2324 -92.8711 C 47.2168 -92.8711 33.7402 -81.1035 31.0547 -65.625 C 19.3848 -61.7676 11.2793 -50.7324 11.2793 -38.1836 C 11.2793 -29.0039 14.6973 -20.2148 24.3652 -12.9395 Z M 61.5234 21.6309 L 134.619 21.6309 C 152.295 21.6309 164.893 9.17969 164.893 -7.27539 C 164.893 -19.8242 156.836 -30.8594 145.117 -34.7656 C 142.48 -50.293 128.955 -62.0605 112.939 -62.0605 C 103.271 -62.0605 94.2383 -57.666 88.4277 -49.9023 C 86.5234 -50.2441 84.4727 -50.4883 82.4219 -50.4883 C 70.3125 -50.4883 59.4727 -42.334 56.2012 -31.1035 C 43.4082 -28.8086 34.082 -18.0664 34.082 -5.0293 C 34.082 10.1074 45.5566 21.6309 61.5234 21.6309 Z"/>
  </g>
  <g id="Heavy-L" transform="matrix(1 0 0 1 2549.85 1556)">
   <path d="M 25.293 -12.8906 C 27.4414 -25.7324 36.5723 -34.1797 47.3145 -35.9863 C 51.709 -49.9023 64.3066 -58.0566 78.2227 -58.0566 C 80.127 -58.0566 82.0312 -57.8613 83.7891 -57.6172 C 89.8438 -67.1875 100.391 -71.2402 112.744 -70.1172 C 109.619 -75.9766 102.393 -79.9316 93.7988 -79.9316 C 91.1621 -79.9316 88.7207 -79.4922 86.2793 -78.7598 C 80.0781 -86.9141 71.6309 -90.8691 61.9629 -90.8691 C 46.3379 -90.8691 33.1543 -79.1504 30.957 -63.8672 C 19.3848 -60.4004 11.2793 -49.707 11.2793 -37.4023 C 11.2793 -27.9785 15.332 -19.1406 25.293 -12.8906 Z M 60.2539 20.8008 L 133.496 20.8008 C 150.439 20.8008 162.402 8.88672 162.402 -6.83594 C 162.402 -19.1406 154.297 -29.834 142.725 -33.3008 C 140.527 -48.584 127.49 -60.3516 111.816 -60.3516 C 102.148 -60.3516 93.2617 -55.8594 87.6465 -48.0957 C 85.5469 -48.584 83.4473 -48.877 81.2012 -48.877 C 69.3359 -48.877 58.8867 -40.7227 56.0059 -29.4922 C 43.457 -27.6855 34.082 -17.1875 34.082 -4.58984 C 34.082 9.81445 44.9707 20.8008 60.2539 20.8008 Z"/>
  </g>
  <g id="Bold-L" transform="matrix(1 0 0 1 2254.53 1556)">
   <path d="M 26.416 -12.793 C 28.9551 -24.8047 37.4512 -32.5195 47.998 -34.3262 C 52.1973 -47.9492 64.209 -55.7129 77.7344 -55.7129 C 79.6387 -55.7129 81.4453 -55.5176 83.1055 -55.2734 C 88.916 -64.2578 98.7305 -68.2129 110.498 -67.3828 C 107.715 -73.3398 100.83 -77.5879 91.8945 -77.5879 C 89.1602 -77.5879 86.7676 -77.1484 84.3262 -76.416 C 78.418 -84.4238 70.1172 -88.623 60.5469 -88.623 C 45.3125 -88.623 32.5195 -76.9043 30.8594 -61.9141 C 19.3848 -58.8867 11.2793 -48.6328 11.2793 -36.5723 C 11.2793 -26.7578 16.0645 -17.9688 26.416 -12.793 Z M 58.8867 19.9219 L 132.178 19.9219 C 148.34 19.9219 159.619 8.54492 159.619 -6.34766 C 159.619 -18.3594 151.465 -28.6621 140.039 -31.6406 C 138.379 -46.6309 125.83 -58.3984 110.498 -58.3984 C 100.83 -58.3984 92.1875 -53.8574 86.7188 -46.1426 C 84.4727 -46.7773 82.2754 -47.0703 79.8828 -47.0703 C 68.2129 -47.0703 58.1543 -38.916 55.7617 -27.7344 C 43.457 -26.3672 34.1309 -16.2598 34.1309 -4.05273 C 34.1309 9.52148 44.3359 19.9219 58.8867 19.9219 Z"/>
  </g>
  <g id="Semibold-L" transform="matrix(1 0 0 1 1958.77 1556)">
   <path d="M 27.1484 -12.7441 C 29.9805 -24.1699 38.0371 -31.3477 48.4375 -33.1543 C 52.4902 -46.582 64.1602 -54.1016 77.4414 -54.1016 C 79.3457 -54.1016 81.0547 -53.9062 82.666 -53.6621 C 88.2812 -62.207 97.5586 -66.1133 108.936 -65.4785 C 106.396 -71.4844 99.7559 -75.9766 90.5762 -75.9766 C 87.7441 -75.9766 85.4492 -75.5371 82.959 -74.8047 C 77.2949 -82.7148 69.043 -87.0605 59.5703 -87.0605 C 44.5801 -87.0605 32.0801 -75.3906 30.8105 -60.5957 C 19.3848 -57.8613 11.2793 -47.8516 11.2793 -35.9863 C 11.2793 -25.9766 16.6016 -17.1875 27.1484 -12.7441 Z M 57.9102 19.2383 L 131.299 19.2383 C 146.875 19.2383 157.715 8.30078 157.715 -6.00586 C 157.715 -17.8223 149.512 -27.8809 138.184 -30.5176 C 136.865 -45.3125 124.707 -57.0312 109.619 -57.0312 C 99.9512 -57.0312 91.4062 -52.4414 86.084 -44.7754 C 83.6914 -45.459 81.4941 -45.8496 79.0039 -45.8496 C 67.4316 -45.8496 57.7148 -37.6465 55.5664 -26.4648 C 43.457 -25.5371 34.1797 -15.625 34.1797 -3.71094 C 34.1797 9.27734 43.8477 19.2383 57.9102 19.2383 Z"/>
  </g>
  <g id="Medium-L" transform="matrix(1 0 0 1 1662.79 1556)">
   <path d="M 27.7344 -12.7441 C 30.7617 -23.6816 38.4766 -30.4688 48.7793 -32.2754 C 52.7344 -45.5566 64.1113 -52.9297 77.1973 -52.9297 C 79.1016 -52.9297 80.7617 -52.6855 82.3242 -52.4414 C 87.793 -60.6934 96.6797 -64.5508 107.764 -64.0137 C 105.371 -70.1172 98.9258 -74.7559 89.5996 -74.7559 C 86.7188 -74.7559 84.4727 -74.3164 81.9336 -73.584 C 76.416 -81.4453 68.2617 -85.8887 58.8379 -85.8887 C 44.043 -85.8887 31.7383 -74.2188 30.7129 -59.5703 C 19.3848 -57.0312 11.2793 -47.2656 11.2793 -35.5469 C 11.2793 -25.3418 16.9922 -16.5527 27.7344 -12.7441 Z M 57.1777 18.7988 L 130.615 18.7988 C 145.801 18.7988 156.25 8.10547 156.25 -5.71289 C 156.25 -17.4316 147.998 -27.2949 136.768 -29.6387 C 135.742 -44.2871 123.828 -56.0547 108.936 -56.0547 C 99.2676 -56.0547 90.8203 -51.3672 85.6445 -43.75 C 83.1055 -44.5312 80.8594 -44.9219 78.2715 -44.9219 C 66.8457 -44.9219 57.3242 -36.7188 55.4199 -25.5371 C 43.457 -24.8535 34.1797 -15.1367 34.1797 -3.41797 C 34.1797 9.08203 43.5059 18.7988 57.1777 18.7988 Z"/>
  </g>
  <g id="Regular-L" transform="matrix(1 0 0 1 1367.03 1556)">
   <path d="M 28.4668 -12.6953 C 31.7871 -23.0469 39.0625 -29.2969 49.2188 -31.1035 C 53.0762 -44.2383 64.0625 -51.3184 76.9043 -51.3184 C 78.7598 -51.3184 80.4199 -51.0742 81.8359 -50.8301 C 87.1582 -58.6914 95.5566 -62.5 106.201 -62.1582 C 104.102 -68.3105 97.8516 -73.1934 88.3301 -73.1934 C 85.3516 -73.1934 83.1543 -72.7051 80.6152 -71.9727 C 75.293 -79.7363 67.1875 -84.3262 57.9102 -84.3262 C 43.3594 -84.3262 31.2988 -72.7051 30.6641 -58.252 C 19.3848 -56.0059 11.2793 -46.5332 11.2793 -34.9609 C 11.2793 -24.5605 17.4805 -15.7715 28.4668 -12.6953 Z M 56.2012 18.1641 L 129.736 18.1641 C 144.385 18.1641 154.346 7.86133 154.346 -5.37109 C 154.346 -16.8945 146.094 -26.4648 134.961 -28.5156 C 134.277 -42.9688 122.705 -54.7363 108.057 -54.7363 C 98.3887 -54.7363 90.0879 -50 85.0098 -42.3828 C 82.373 -43.2617 80.0781 -43.7012 77.3926 -43.7012 C 66.0645 -43.7012 56.8359 -35.498 55.2734 -24.3164 C 43.5059 -23.9746 34.1797 -14.502 34.1797 -3.07617 C 34.1797 8.88672 43.0664 18.1641 56.2012 18.1641 Z"/>
  </g>
  <g id="Light-L" transform="matrix(1 0 0 1 1070.81 1556)">
   <path d="M 28.418 -13.3789 C 31.9824 -22.9004 38.8184 -28.5156 48.6816 -29.9805 C 51.8555 -42.6758 62.4023 -50.2441 75.0488 -50.2441 C 77.5391 -50.2441 79.4922 -49.9023 81.2012 -49.5605 C 86.8164 -57.9102 95.8984 -61.8652 107.373 -61.1328 C 105.127 -68.3594 98.584 -73.5352 88.8672 -73.5352 C 85.6445 -73.5352 83.5449 -73.0957 80.8105 -72.3633 C 75.293 -80.4688 67.2852 -85.0098 58.0078 -85.0098 C 43.457 -85.0098 31.3477 -73.2422 30.9082 -58.6914 C 19.3848 -56.4941 11.2793 -47.0215 11.2793 -35.498 C 11.2793 -24.9023 17.3828 -16.2598 28.418 -13.3789 Z M 54.3945 17.8711 L 128.711 17.8711 C 143.262 17.8711 153.369 7.86133 153.369 -5.46875 C 153.369 -16.9922 144.971 -26.6113 133.691 -28.5156 C 133.203 -43.0176 121.875 -54.9805 107.129 -54.9805 C 97.2656 -54.9805 88.9648 -50.293 83.8379 -42.3828 C 80.9082 -43.3594 78.6621 -43.7988 75.8301 -43.7988 C 64.502 -43.7988 55.3711 -35.5957 53.8086 -24.2676 C 41.9434 -23.9746 32.5684 -14.4043 32.5684 -3.125 C 32.5684 8.78906 41.4551 17.8711 54.3945 17.8711 Z"/>
  </g>
  <g id="Thin-L" transform="matrix(1 0 0 1 774.757 1556)">
   <path d="M 28.418 -14.3555 C 32.2266 -22.7051 38.5254 -27.4414 47.998 -28.5156 C 50.2441 -40.625 60.2539 -48.8281 72.6562 -48.8281 C 75.8789 -48.8281 78.3203 -48.3887 80.3223 -47.8516 C 86.377 -56.9336 96.3379 -60.9863 108.887 -59.8145 C 106.543 -68.4082 99.5117 -73.9746 89.6484 -73.9746 C 86.0352 -73.9746 84.0332 -73.6328 81.1035 -72.9004 C 75.293 -81.4941 67.4316 -85.9375 58.2031 -85.9375 C 43.5547 -85.9375 31.4453 -73.9746 31.2012 -59.2285 C 19.3848 -57.1289 11.2793 -47.7051 11.2793 -36.1328 C 11.2793 -25.3906 17.1875 -16.8457 28.418 -14.3555 Z M 51.9531 17.4805 L 127.344 17.4805 C 141.797 17.4805 152.051 7.86133 152.051 -5.61523 C 152.051 -17.1387 143.555 -26.7578 132.031 -28.4668 C 131.787 -43.1152 120.801 -55.3711 105.859 -55.3711 C 95.8008 -55.3711 87.4512 -50.6836 82.2266 -42.4316 C 79.0039 -43.5059 76.7578 -43.9941 73.8281 -43.9941 C 62.4023 -43.9941 53.3691 -35.791 51.9043 -24.1211 C 39.8926 -23.9258 30.4199 -14.3066 30.4199 -3.22266 C 30.4199 8.74023 39.3555 17.4805 51.9531 17.4805 Z"/>
  </g>
  <g id="Ultralight-L" transform="matrix(1 0 0 1 478.388 1556)">
   <path d="M 28.418 -14.8438 C 32.3242 -22.6074 38.3789 -26.9043 47.6074 -27.7344 C 49.4141 -39.5996 59.1797 -48.0957 71.3867 -48.0957 C 75.0488 -48.0957 77.7344 -47.6074 79.8828 -46.9727 C 86.1328 -56.3965 96.5332 -60.5469 109.668 -59.1309 C 107.227 -68.4082 99.9512 -74.2188 90.0391 -74.2188 C 86.2305 -74.2188 84.2773 -73.9258 81.25 -73.1934 C 75.293 -81.9824 67.5293 -86.377 58.3008 -86.377 C 43.6523 -86.377 31.4941 -74.3652 31.3965 -59.5215 C 19.3848 -57.4707 11.2793 -48.0469 11.2793 -36.4746 C 11.2793 -25.6836 17.0898 -17.1875 28.418 -14.8438 Z M 50.7324 17.334 L 126.66 17.334 C 141.016 17.334 151.367 7.8125 151.367 -5.71289 C 151.367 -17.1875 142.822 -26.8555 131.152 -28.418 C 131.055 -43.1641 120.215 -55.5664 105.225 -55.5664 C 95.0195 -55.5664 86.6699 -50.8789 81.3965 -42.4316 C 78.0273 -43.6035 75.7812 -44.0918 72.8027 -44.0918 C 61.3281 -44.0918 52.3438 -35.8887 50.9277 -24.0723 C 38.8184 -23.9258 29.3457 -14.2578 29.3457 -3.27148 C 29.3457 8.69141 38.2812 17.334 50.7324 17.334 Z"/>
  </g>
  <g id="Black-M" transform="matrix(1 0 0 1 2863.72 1126)">
   <path d="M 17.5293 -18.4082 C 18.5059 -29.541 26.6113 -37.207 35.1562 -38.4277 C 38.5742 -49.4629 49.1211 -56.7383 60.498 -56.7383 C 62.3535 -56.7383 64.1602 -56.5918 65.8691 -56.3965 C 71.1914 -65.1855 81.1523 -68.5059 92.2852 -66.9434 C 89.1113 -71.875 82.7148 -74.5117 76.5625 -74.5117 C 74.5605 -74.5117 72.5586 -74.2188 70.7031 -73.6328 C 65.1855 -80.4199 58.4961 -83.0078 50.7812 -83.0078 C 37.8906 -83.0078 26.9531 -73.7793 24.3652 -61.3281 C 15.0391 -57.8613 8.74023 -48.877 8.74023 -38.7695 C 8.74023 -32.0312 10.4004 -25.2441 17.5293 -18.4082 Z M 48.3887 9.81445 L 105.371 9.81445 C 119.971 9.81445 130.615 -0.390625 130.615 -14.2578 C 130.615 -24.3164 124.414 -33.3008 115.039 -36.8652 C 112.451 -49.2676 101.465 -58.5449 88.623 -58.5449 C 81.0059 -58.5449 73.7305 -55.2246 68.9941 -48.9746 C 67.627 -49.1699 66.1133 -49.2676 64.6484 -49.2676 C 55.0293 -49.2676 46.1426 -42.9688 43.1152 -34.1309 C 32.8125 -31.7871 25.4883 -22.998 25.4883 -12.5 C 25.4883 0.292969 35.2051 9.81445 48.3887 9.81445 Z"/>
  </g>
  <g id="Heavy-M" transform="matrix(1 0 0 1 2568.23 1126)">
   <path d="M 18.6035 -18.1641 C 19.9219 -28.6621 27.4902 -35.7422 35.9375 -37.0605 C 39.3066 -47.9492 49.4629 -54.7852 60.5469 -54.7852 C 62.207 -54.7852 63.8672 -54.5898 65.3809 -54.3945 C 70.4102 -62.5 79.4434 -65.7227 89.7461 -64.5508 C 86.9629 -69.2383 81.0059 -72.1191 74.5605 -72.1191 C 72.5586 -72.1191 70.6055 -71.8262 68.75 -71.2402 C 63.5742 -77.7832 56.9824 -80.6152 49.3652 -80.6152 C 36.8652 -80.6152 26.3184 -71.4355 24.1699 -59.3262 C 15.0391 -56.25 8.74023 -47.6562 8.74023 -37.8418 C 8.74023 -30.7617 11.1816 -23.9746 18.6035 -18.1641 Z M 47.5098 8.98438 L 104.346 8.98438 C 118.213 8.98438 128.174 -0.732422 128.174 -13.7207 C 128.174 -23.5352 121.924 -32.1777 112.744 -35.2539 C 110.596 -47.3633 100.098 -56.543 87.5977 -56.543 C 80.0293 -56.543 72.9492 -53.1738 68.4082 -47.0215 C 66.9434 -47.3145 65.3809 -47.5098 63.7695 -47.5098 C 54.3457 -47.5098 45.8496 -41.1621 43.2129 -32.4219 C 33.2031 -30.5176 25.9277 -22.1191 25.9277 -11.9629 C 25.9277 0 35.0098 8.98438 47.5098 8.98438 Z"/>
  </g>
  <g id="Bold-M" transform="matrix(1 0 0 1 2272.91 1126)">
   <path d="M 19.8242 -17.8711 C 21.5332 -27.6855 28.5156 -34.1797 36.8164 -35.5469 C 40.1855 -46.2891 49.8535 -52.5391 60.5469 -52.5391 C 62.0605 -52.5391 63.4766 -52.3926 64.8438 -52.1973 C 69.4824 -59.5215 77.4902 -62.5977 86.9629 -61.8164 C 84.5703 -66.3574 79.1016 -69.4824 72.3633 -69.4824 C 70.2637 -69.4824 68.4082 -69.1406 66.5527 -68.5547 C 61.7676 -74.8535 55.2734 -77.9785 47.8027 -77.9785 C 35.7422 -77.9785 25.5859 -68.8477 23.9746 -57.0801 C 15.0391 -54.4922 8.74023 -46.2891 8.74023 -36.7676 C 8.74023 -29.3945 12.0117 -22.5586 19.8242 -17.8711 Z M 46.4844 8.05664 L 103.223 8.05664 C 116.211 8.05664 125.391 -1.07422 125.391 -13.1348 C 125.391 -22.6074 119.092 -30.8594 110.156 -33.4473 C 108.545 -45.2148 98.5352 -54.3457 86.4258 -54.3457 C 78.9551 -54.3457 72.1191 -50.8789 67.7734 -44.873 C 66.1133 -45.2637 64.502 -45.5078 62.7441 -45.5078 C 53.5645 -45.5078 45.5078 -39.1602 43.3594 -30.4688 C 33.6914 -29.1504 26.4648 -21.0938 26.4648 -11.377 C 26.4648 -0.341797 34.7656 8.05664 46.4844 8.05664 Z"/>
  </g>
  <g id="Semibold-M" transform="matrix(1 0 0 1 1977.13 1126)">
   <path d="M 20.6055 -17.6758 C 22.6074 -27.0508 29.1992 -33.0566 37.4023 -34.5215 C 40.7715 -45.1172 50.0977 -50.9766 60.5957 -50.9766 C 61.9141 -50.9766 63.2324 -50.8301 64.4531 -50.6836 C 68.8477 -57.4707 76.1719 -60.4492 85.0098 -59.9121 C 82.959 -64.3555 77.7344 -67.627 70.8008 -67.627 C 68.7012 -67.627 66.8945 -67.2852 65.0391 -66.6992 C 60.5469 -72.8027 54.1016 -76.123 46.6797 -76.123 C 34.9121 -76.123 25.0977 -67.0898 23.877 -55.5176 C 15.0391 -53.2227 8.74023 -45.3125 8.74023 -36.0352 C 8.74023 -28.418 12.5977 -21.582 20.6055 -17.6758 Z M 45.8008 7.42188 L 102.441 7.42188 C 114.893 7.42188 123.535 -1.36719 123.535 -12.7441 C 123.535 -22.0215 117.188 -29.9316 108.398 -32.2266 C 107.129 -43.75 97.4609 -52.832 85.6445 -52.832 C 78.2227 -52.832 71.5332 -49.2676 67.334 -43.3594 C 65.5762 -43.8477 63.916 -44.1406 62.0605 -44.1406 C 53.0273 -44.1406 45.3125 -37.793 43.457 -29.1504 C 34.0332 -28.1738 26.8066 -20.4102 26.8066 -10.9863 C 26.8066 -0.585938 34.5703 7.42188 45.8008 7.42188 Z"/>
  </g>
  <g id="Medium-M" transform="matrix(1 0 0 1 1681.15 1126)">
   <path d="M 21.2402 -17.5293 C 23.4375 -26.5137 29.6875 -32.2266 37.8418 -33.7402 C 41.2109 -44.2383 50.293 -49.8535 60.5957 -49.8535 C 61.8652 -49.8535 63.0371 -49.707 64.1602 -49.5605 C 68.3594 -55.8594 75.1953 -58.8379 83.5449 -58.4961 C 81.6895 -62.8418 76.7578 -66.2598 69.6289 -66.2598 C 67.5293 -66.2598 65.7227 -65.8691 63.8672 -65.332 C 59.5703 -71.2891 53.1738 -74.707 45.8496 -74.707 C 34.3262 -74.707 24.707 -65.7227 23.7305 -54.3457 C 15.0391 -52.2949 8.74023 -44.6289 8.74023 -35.498 C 8.74023 -27.6855 13.0371 -20.8496 21.2402 -17.5293 Z M 45.2637 6.93359 L 101.855 6.93359 C 113.867 6.93359 122.07 -1.5625 122.07 -12.4512 C 122.07 -21.5332 115.723 -29.248 107.031 -31.2988 C 106.055 -42.627 96.6309 -51.6602 85.0586 -51.6602 C 77.6367 -51.6602 71.0449 -48.0957 66.9922 -42.2363 C 65.1855 -42.7734 63.4277 -43.0664 61.5234 -43.0664 C 52.6367 -43.0664 45.1172 -36.7188 43.5547 -28.1738 C 34.2773 -27.4902 27.0996 -19.873 27.0996 -10.6445 C 27.0996 -0.78125 34.4727 6.93359 45.2637 6.93359 Z"/>
  </g>
  <g id="Regular-M" transform="matrix(1 0 0 1 1385.37 1126)">
   <path d="M 22.0703 -17.334 C 24.5117 -25.8789 30.3711 -31.1035 38.4277 -32.7148 C 41.7969 -43.1152 50.5371 -48.291 60.6445 -48.291 C 61.7676 -48.291 62.793 -48.1934 63.8184 -48.0469 C 67.7734 -53.8574 73.877 -56.7383 81.6406 -56.6406 C 80.0781 -60.8398 75.4395 -64.4531 68.1152 -64.4531 C 65.9668 -64.4531 64.209 -64.0625 62.3535 -63.4766 C 58.3496 -69.2871 52.002 -72.9004 44.7754 -72.9004 C 33.5449 -72.9004 24.2188 -63.9648 23.6328 -52.832 C 15.0391 -51.0742 8.74023 -43.7012 8.74023 -34.7656 C 8.74023 -26.7578 13.623 -19.873 22.0703 -17.334 Z M 44.6289 6.29883 L 101.123 6.29883 C 112.5 6.29883 120.215 -1.80664 120.215 -12.0117 C 120.215 -20.9473 113.818 -28.3691 105.273 -30.0781 C 104.688 -41.1621 95.5566 -50.1953 84.2773 -50.1953 C 76.9043 -50.1953 70.459 -46.4844 66.5527 -40.7715 C 64.6484 -41.4062 62.8418 -41.6992 60.8398 -41.6992 C 52.0996 -41.6992 44.9219 -35.3516 43.6523 -26.8555 C 34.5703 -26.5137 27.4414 -19.1895 27.4414 -10.2539 C 27.4414 -1.02539 34.2773 6.29883 44.6289 6.29883 Z"/>
  </g>
  <g id="Light-M" transform="matrix(1 0 0 1 1089.12 1126)">
   <path d="M 22.0703 -17.9688 C 24.707 -25.7324 30.1758 -30.3711 37.9883 -31.6895 C 40.7227 -41.6992 49.0723 -47.3633 58.9844 -47.3633 C 60.6445 -47.3633 62.0117 -47.1191 63.2324 -46.875 C 67.4316 -53.1738 74.1699 -56.1523 82.666 -55.7617 C 81.0059 -60.8887 76.0742 -64.7461 68.6523 -64.7461 C 66.2598 -64.7461 64.5508 -64.4043 62.5488 -63.8672 C 58.3496 -69.9707 52.0996 -73.5352 44.9219 -73.5352 C 33.6426 -73.5352 24.2676 -64.4531 23.8281 -53.2227 C 15.0391 -51.5137 8.74023 -44.1406 8.74023 -35.2051 C 8.74023 -27.0508 13.5254 -20.3125 22.0703 -17.9688 Z M 42.9688 6.05469 L 100.195 6.05469 C 111.523 6.05469 119.287 -1.80664 119.287 -12.1094 C 119.287 -21.0449 112.842 -28.4668 104.15 -30.0293 C 103.711 -41.2598 94.8242 -50.4395 83.4473 -50.4395 C 75.8789 -50.4395 69.4336 -46.7773 65.4785 -40.7715 C 63.3789 -41.5039 61.5723 -41.8457 59.4727 -41.8457 C 50.6836 -41.8457 43.5547 -35.4492 42.334 -26.7578 C 33.2031 -26.5137 25.9766 -19.1406 25.9766 -10.3027 C 25.9766 -1.07422 32.8613 6.05469 42.9688 6.05469 Z"/>
  </g>
  <g id="Thin-M" transform="matrix(1 0 0 1 792.994 1126)">
   <path d="M 22.0215 -18.8477 C 24.9023 -25.5371 29.9316 -29.4434 37.3535 -30.3223 C 39.2578 -39.8438 47.168 -46.0938 56.8359 -46.0938 C 59.1797 -46.0938 60.9863 -45.752 62.4512 -45.3613 C 67.041 -52.2461 74.5605 -55.3711 84.082 -54.5898 C 82.2754 -60.9375 76.9043 -65.1855 69.2871 -65.1855 C 66.6016 -65.1855 64.9902 -64.8926 62.793 -64.3066 C 58.3496 -70.8496 52.2461 -74.3164 45.0684 -74.3164 C 33.7402 -74.3164 24.3652 -65.1367 24.1211 -53.7109 C 15.0391 -52.0508 8.74023 -44.7754 8.74023 -35.791 C 8.74023 -27.4902 13.3789 -20.8496 22.0215 -18.8477 Z M 40.8203 5.71289 L 98.9746 5.71289 C 110.205 5.71289 118.115 -1.85547 118.115 -12.2559 C 118.115 -21.1914 111.572 -28.6621 102.686 -29.9805 C 102.441 -41.3086 93.8477 -50.7324 82.3242 -50.7324 C 74.5605 -50.7324 68.0664 -47.1191 64.0625 -40.8203 C 61.6699 -41.6016 59.9121 -41.9922 57.666 -41.9922 C 48.8281 -41.9922 41.7969 -35.6445 40.625 -26.6602 C 31.3477 -26.4648 24.0234 -19.043 24.0234 -10.4004 C 24.0234 -1.12305 30.957 5.71289 40.8203 5.71289 Z"/>
  </g>
  <g id="Ultralight-M" transform="matrix(1 0 0 1 496.576 1126)">
   <path d="M 22.0215 -19.2871 C 25 -25.4883 29.7852 -28.9062 37.0117 -29.6387 C 38.5254 -38.916 46.1914 -45.4102 55.7129 -45.4102 C 58.3984 -45.4102 60.4492 -45.0684 62.0605 -44.6289 C 66.7969 -51.8066 74.7559 -54.9805 84.7656 -53.9551 C 82.9102 -60.9375 77.3438 -65.3809 69.6777 -65.3809 C 66.7969 -65.3809 65.2344 -65.1367 62.8906 -64.5508 C 58.3496 -71.3379 52.2949 -74.7559 45.166 -74.7559 C 33.7891 -74.7559 24.3652 -65.4297 24.2676 -53.9551 C 15.0391 -52.3438 8.74023 -45.0684 8.74023 -36.084 C 8.74023 -27.7344 13.2812 -21.1426 22.0215 -19.2871 Z M 39.6973 5.56641 L 98.3887 5.56641 C 109.521 5.56641 117.529 -1.85547 117.529 -12.3535 C 117.529 -21.2402 110.889 -28.7109 101.904 -29.9805 C 101.807 -41.3574 93.3594 -50.9277 81.7383 -50.9277 C 73.877 -50.9277 67.3828 -47.3145 63.3301 -40.8203 C 60.791 -41.6992 59.0332 -42.041 56.7383 -42.041 C 47.8516 -42.041 40.8691 -35.6934 39.7461 -26.6113 C 30.4199 -26.4648 23.0469 -18.9941 23.0469 -10.4492 C 23.0469 -1.17188 29.9805 5.56641 39.6973 5.56641 Z"/>
  </g>
  <g id="Black-S" transform="matrix(1 0 0 1 2878.91 696)">
   <path d="M 13.8184 -22.0215 C 14.5996 -30.7129 20.8984 -36.6699 27.5879 -37.6465 C 30.2734 -46.2891 38.5254 -51.9531 47.4121 -51.9531 C 48.8281 -51.9531 50.2441 -51.8066 51.5625 -51.6602 C 55.7129 -58.4961 63.4277 -61.084 72.0703 -59.9121 C 69.6289 -63.7207 64.6484 -65.8203 59.8145 -65.8203 C 58.252 -65.8203 56.6895 -65.5762 55.2246 -65.1367 C 50.9277 -70.4102 45.7031 -72.4609 39.6484 -72.4609 C 29.5898 -72.4609 21.0449 -65.2344 19.043 -55.5176 C 11.7676 -52.832 6.83594 -45.8008 6.83594 -37.9395 C 6.83594 -32.6172 8.20312 -27.2949 13.8184 -22.0215 Z M 37.8418 0 L 82.4707 0 C 93.8477 0 102.148 -7.95898 102.148 -18.75 C 102.148 -26.6113 97.2656 -33.6426 89.9414 -36.377 C 87.9395 -46.0938 79.3945 -53.3203 69.3359 -53.3203 C 63.3789 -53.3203 57.7148 -50.7324 54.0039 -45.8496 C 52.9297 -45.9961 51.7578 -46.0938 50.5859 -46.0938 C 43.0664 -46.0938 36.1328 -41.1621 33.7891 -34.2285 C 25.7324 -32.4219 20.0195 -25.5859 20.0195 -17.3828 C 20.0195 -7.42188 27.5879 0 37.8418 0 Z"/>
  </g>
  <g id="Heavy-S" transform="matrix(1 0 0 1 2583.1 696)">
   <path d="M 14.6484 -21.7773 C 15.6738 -30.0781 21.582 -35.6445 28.2227 -36.7188 C 31.0059 -45.3125 38.9648 -50.5371 47.6074 -50.5371 C 48.8281 -50.5371 50.0977 -50.3906 51.2695 -50.293 C 55.127 -56.543 62.0605 -59.0332 70.0195 -58.1543 C 67.8711 -61.7188 63.2812 -63.9648 58.252 -63.9648 C 56.6895 -63.9648 55.127 -63.7207 53.7109 -63.2812 C 49.707 -68.3105 44.5312 -70.5566 38.5742 -70.5566 C 28.8086 -70.5566 20.5566 -63.4277 18.8965 -53.9551 C 11.7676 -51.5625 6.83594 -44.8242 6.83594 -37.1582 C 6.83594 -31.6406 8.78906 -26.2695 14.6484 -21.7773 Z M 37.3535 -0.585938 L 81.7871 -0.585938 C 92.627 -0.585938 100.342 -8.20312 100.342 -18.3594 C 100.342 -25.9766 95.459 -32.7148 88.3301 -35.1562 C 86.6699 -44.6289 78.418 -51.8066 68.6523 -51.8066 C 62.7441 -51.8066 57.2266 -49.1211 53.7109 -44.3848 C 52.5391 -44.5801 51.3184 -44.7266 50.0488 -44.7266 C 42.6758 -44.7266 36.084 -39.7949 34.0332 -32.9102 C 26.2207 -31.4941 20.5078 -24.9023 20.5078 -16.9922 C 20.5078 -7.66602 27.5879 -0.585938 37.3535 -0.585938 Z"/>
  </g>
  <g id="Bold-S" transform="matrix(1 0 0 1 2287.37 696)">
   <path d="M 15.5273 -21.4844 C 16.8457 -29.3457 22.4121 -34.5215 28.9551 -35.6934 C 31.7871 -44.1895 39.4043 -48.9258 47.8516 -48.9258 C 48.877 -48.9258 49.9023 -48.8281 50.9277 -48.7305 C 54.4922 -54.2969 60.5469 -56.7383 67.7734 -56.2012 C 65.9668 -59.5215 61.7188 -61.9141 56.4453 -61.9141 C 54.8828 -61.9141 53.418 -61.6211 52.002 -61.1816 C 48.3398 -66.0156 43.2129 -68.457 37.3535 -68.457 C 27.9297 -68.457 20.0195 -61.377 18.7012 -52.1973 C 11.7676 -50.1465 6.83594 -43.7012 6.83594 -36.2793 C 6.83594 -30.5176 9.47266 -25.1465 15.5273 -21.4844 Z M 36.7676 -1.26953 L 81.0547 -1.26953 C 91.2109 -1.26953 98.3887 -8.49609 98.3887 -17.8711 C 98.3887 -25.293 93.457 -31.7383 86.4746 -33.7891 C 85.2051 -42.9688 77.2949 -50.0488 67.8711 -50.0488 C 62.0605 -50.0488 56.6895 -47.3145 53.3203 -42.7246 C 52.0996 -43.0176 50.7812 -43.1641 49.4629 -43.1641 C 42.2852 -43.1641 35.9863 -38.2324 34.2773 -31.4453 C 26.7578 -30.4199 21.0938 -24.1211 21.0938 -16.5039 C 21.0938 -7.91016 27.5879 -1.26953 36.7676 -1.26953 Z"/>
  </g>
  <g id="Semibold-S" transform="matrix(1 0 0 1 1991.36 696)">
   <path d="M 16.1621 -21.2402 C 17.6758 -28.8574 22.9492 -33.7402 29.4922 -34.9609 C 32.3242 -43.4082 39.7461 -47.8516 47.998 -47.8516 C 48.877 -47.8516 49.8047 -47.7539 50.6836 -47.6562 C 54.0039 -52.7832 59.5215 -55.127 66.2109 -54.834 C 64.5996 -57.959 60.6445 -60.4492 55.2246 -60.4492 C 53.6621 -60.4492 52.2461 -60.1562 50.8301 -59.7168 C 47.3633 -64.4043 42.2852 -66.9922 36.4746 -66.9922 C 27.2949 -66.9922 19.6289 -59.9609 18.6035 -50.9766 C 11.7676 -49.1699 6.83594 -42.9688 6.83594 -35.6934 C 6.83594 -29.7363 9.91211 -24.3652 16.1621 -21.2402 Z M 36.4258 -1.75781 L 80.5664 -1.75781 C 90.2832 -1.75781 96.9727 -8.69141 96.9727 -17.5781 C 96.9727 -24.8047 92.0898 -31.0059 85.2051 -32.8613 C 84.2285 -41.8457 76.5625 -48.877 67.334 -48.877 C 61.5723 -48.877 56.3477 -46.0938 53.0762 -41.5527 C 51.8066 -41.8945 50.4395 -42.0898 49.0234 -42.0898 C 41.9922 -42.0898 35.9375 -37.1582 34.4727 -30.4688 C 27.0996 -29.6875 21.4844 -23.6328 21.4844 -16.2109 C 21.4844 -8.10547 27.5879 -1.75781 36.4258 -1.75781 Z"/>
  </g>
  <g id="Medium-S" transform="matrix(1 0 0 1 1695.16 696)">
   <path d="M 16.6504 -21.0938 C 18.3105 -28.4668 23.3398 -33.1543 29.834 -34.4238 C 32.7148 -42.8223 39.9902 -47.0215 48.1445 -47.0215 C 48.877 -47.0215 49.707 -46.9727 50.4883 -46.875 C 53.6621 -51.6602 58.7402 -53.9062 64.9902 -53.8086 C 63.5742 -56.7871 59.8633 -59.375 54.2969 -59.375 C 52.7832 -59.375 51.3184 -59.0332 49.9023 -58.5938 C 46.6309 -63.1836 41.6016 -65.8691 35.8398 -65.8691 C 26.8555 -65.8691 19.3359 -58.8867 18.5059 -50.0488 C 11.7676 -48.3887 6.83594 -42.3828 6.83594 -35.2539 C 6.83594 -29.1992 10.2539 -23.7793 16.6504 -21.0938 Z M 36.1328 -2.09961 L 80.1758 -2.09961 C 89.5508 -2.09961 95.9473 -8.83789 95.9473 -17.334 C 95.9473 -24.4629 91.0156 -30.5176 84.2773 -32.1289 C 83.4473 -40.9668 75.9766 -47.998 66.9434 -47.998 C 61.2305 -47.998 56.0547 -45.166 52.9297 -40.6738 C 51.5625 -41.0645 50.1953 -41.3086 48.7305 -41.3086 C 41.748 -41.3086 35.8887 -36.3281 34.6191 -29.6875 C 27.3926 -29.1504 21.7773 -23.1934 21.7773 -15.9668 C 21.7773 -8.25195 27.5879 -2.09961 36.1328 -2.09961 Z"/>
  </g>
  <g id="Regular-S" transform="matrix(1 0 0 1 1399.14 696)">
   <path d="M 17.2852 -20.8984 C 19.1406 -27.9785 23.877 -32.373 30.3223 -33.7402 C 33.3008 -42.0898 40.2832 -45.9473 48.291 -45.9473 C 48.877 -45.9473 49.5605 -45.8984 50.2441 -45.8008 C 53.2227 -50.1465 57.7148 -52.3438 63.4277 -52.4414 C 62.2559 -55.2734 58.7891 -57.959 53.125 -57.959 C 51.5625 -57.959 50.1465 -57.6172 48.7793 -57.1777 C 45.7031 -61.5723 40.6738 -64.4531 35.0098 -64.4531 C 26.2207 -64.4531 18.9453 -57.5195 18.4082 -48.8281 C 11.7676 -47.4121 6.83594 -41.6016 6.83594 -34.6191 C 6.83594 -28.418 10.7422 -22.998 17.2852 -20.8984 Z M 35.7422 -2.58789 L 79.6387 -2.58789 C 88.623 -2.58789 94.5801 -9.0332 94.5801 -16.9922 C 94.5801 -23.9746 89.6484 -29.7852 83.0078 -31.2012 C 82.4707 -39.8438 75.2441 -46.8262 66.4062 -46.8262 C 60.7422 -46.8262 55.7129 -43.9453 52.6855 -39.5508 C 51.2695 -39.9902 49.8535 -40.2344 48.3398 -40.2344 C 41.5039 -40.2344 35.8398 -35.2539 34.8145 -28.7109 C 27.7832 -28.418 22.168 -22.7051 22.168 -15.625 C 22.168 -8.39844 27.5391 -2.58789 35.7422 -2.58789 Z"/>
  </g>
  <g id="Light-S" transform="matrix(1 0 0 1 1102.82 696)">
   <path d="M 17.2852 -21.4844 C 19.2871 -27.832 23.7305 -31.6895 29.9316 -32.8125 C 32.3242 -40.8203 39.0137 -45.1172 46.8262 -45.1172 C 47.9004 -45.1172 48.877 -44.9707 49.7559 -44.8242 C 52.9297 -49.5605 57.959 -51.8555 64.3555 -51.6602 C 63.0859 -55.3223 59.3262 -58.252 53.5645 -58.252 C 51.8066 -58.252 50.4395 -57.959 48.9258 -57.5195 C 45.7031 -62.1582 40.7715 -64.9902 35.1074 -64.9902 C 26.3184 -64.9902 18.9941 -57.959 18.6035 -49.1699 C 11.7676 -47.8027 6.83594 -42.041 6.83594 -35.0586 C 6.83594 -28.7109 10.6445 -23.3887 17.2852 -21.4844 Z M 34.2773 -2.7832 L 78.8574 -2.7832 C 87.7441 -2.7832 93.7988 -9.0332 93.7988 -17.0898 C 93.7988 -24.0723 88.7695 -29.8828 82.0312 -31.1523 C 81.6406 -39.8926 74.5605 -47.0215 65.6738 -47.0215 C 59.8145 -47.0215 54.7852 -44.1895 51.709 -39.5508 C 50.0977 -40.0879 48.7305 -40.332 47.1191 -40.332 C 40.2344 -40.332 34.6191 -35.3516 33.6426 -28.6133 C 26.5137 -28.418 20.8984 -22.6562 20.8984 -15.6738 C 20.8984 -8.44727 26.2695 -2.7832 34.2773 -2.7832 Z"/>
  </g>
  <g id="Thin-S" transform="matrix(1 0 0 1 806.618 696)">
   <path d="M 17.2363 -22.2168 C 19.4336 -27.6855 23.4863 -30.8594 29.3457 -31.6406 C 31.0547 -39.209 37.3047 -43.9941 44.9219 -43.9941 C 46.6309 -43.9941 47.9492 -43.75 49.0723 -43.457 C 52.5879 -48.7305 58.3008 -51.1719 65.5762 -50.6348 C 64.209 -55.3223 60.0586 -58.5938 54.1504 -58.5938 C 52.0996 -58.5938 50.8301 -58.3496 49.1211 -57.9102 C 45.7031 -62.9883 40.8691 -65.7227 35.2539 -65.7227 C 26.416 -65.7227 19.043 -58.4961 18.8477 -49.6094 C 11.7676 -48.291 6.83594 -42.5781 6.83594 -35.5469 C 6.83594 -29.1016 10.498 -23.877 17.2363 -22.2168 Z M 32.373 -3.07617 L 77.7832 -3.07617 C 86.5723 -3.07617 92.7734 -9.08203 92.7734 -17.1875 C 92.7734 -24.1699 87.6465 -30.0293 80.7129 -31.1523 C 80.5176 -39.9902 73.6816 -47.3145 64.6973 -47.3145 C 58.6426 -47.3145 53.6133 -44.4824 50.4395 -39.5996 C 48.6328 -40.1855 47.2168 -40.4785 45.5078 -40.4785 C 38.5742 -40.4785 33.0566 -35.498 32.1777 -28.5156 C 24.9023 -28.3691 19.1895 -22.5586 19.1895 -15.7715 C 19.1895 -8.49609 24.6094 -3.07617 32.373 -3.07617 Z"/>
  </g>
  <g id="Ultralight-S" transform="matrix(1 0 0 1 510.175 696)">
   <path d="M 17.2363 -22.6074 C 19.5801 -27.5879 23.3887 -30.4199 29.0527 -31.0547 C 30.3711 -38.3789 36.4258 -43.4082 43.9453 -43.4082 C 45.9473 -43.4082 47.4609 -43.1152 48.7305 -42.7734 C 52.3926 -48.3398 58.4961 -50.8301 66.2109 -50.0977 C 64.7461 -55.3711 60.4492 -58.7891 54.4922 -58.7891 C 52.2461 -58.7891 51.0254 -58.5938 49.2188 -58.1543 C 45.7031 -63.3789 40.9668 -66.0645 35.3516 -66.0645 C 26.4648 -66.0645 19.0918 -58.8379 18.9453 -49.8535 C 11.7676 -48.584 6.83594 -42.8711 6.83594 -35.8398 C 6.83594 -29.2969 10.4004 -24.1211 17.2363 -22.6074 Z M 31.3965 -3.22266 L 77.2461 -3.22266 C 85.9863 -3.22266 92.2363 -9.08203 92.2363 -17.2852 C 92.2363 -24.2676 87.0605 -30.127 80.0293 -31.1035 C 79.9316 -40.0391 73.2422 -47.4609 64.1602 -47.4609 C 58.0566 -47.4609 52.9785 -44.6289 49.8047 -39.5996 C 47.8516 -40.2832 46.4844 -40.5762 44.6777 -40.5762 C 37.7441 -40.5762 32.2754 -35.5957 31.3965 -28.4668 C 24.0723 -28.3691 18.3105 -22.5098 18.3105 -15.8203 C 18.3105 -8.54492 23.7305 -3.22266 31.3965 -3.22266 Z"/>
  </g>
 </g>
</svg>
